<?xml version="1.0" encoding="UTF-8" standalone="no"?>
<svg width="180px" height="122px" viewBox="0 0 180 122" version="1.1" xmlns="http://www.w3.org/2000/svg" xmlns:xlink="http://www.w3.org/1999/xlink" style="background: #FFFFFF;">
    <!-- Generator: Sketch 46.2 (44496) - http://www.bohemiancoding.com/sketch -->
    <title>blockchain-logo</title>
    <desc>Created with Sketch.</desc>
    <defs></defs>
    <g id="Home-page" stroke="none" stroke-width="1" fill="none" fill-rule="evenodd">
        <g id="blockchain-logo">
            <rect id="Rectangle-8-Copy-8" fill="#FFFFFF" x="0" y="0" width="180" height="121.714286"></rect>
            <g id="Group-18" transform="translate(7.000000, 33.000000)">
                <g id="Group-17">
                    <circle id="Oval-9" fill="#545454" cx="23.1030928" cy="29.9484536" r="23.1030928"></circle>
                    <circle id="Oval-10" stroke="#FFFFFF" stroke-width="5" cx="23.1030928" cy="29.9484536" r="11.1237113"></circle>
                    <rect id="Rectangle-21" fill="#FFFFFF" transform="translate(18.783797, 50.246989) rotate(12.000000) translate(-18.783797, -50.246989) " x="15.3611171" y="45.9686385" width="6.84536082" height="8.55670103"></rect>
                    <rect id="Rectangle-21-Copy" fill="#FFFFFF" transform="translate(28.196169, 9.174824) rotate(12.000000) translate(-28.196169, -9.174824) " x="24.7734882" y="4.89647356" width="6.84536082" height="8.55670103"></rect>
                    <rect id="Rectangle-21-Copy-2" fill="#FFFFFF" transform="translate(42.920464, 34.863626) rotate(12.000000) translate(-42.920464, -34.863626) " x="39.4977838" y="31.4409452" width="6.84536082" height="6.84536082"></rect>
                    <polygon id="Rectangle-22" fill="#545454" points="0 5.49197116 9.86659908 0 9.86659908 33.2556698 0 30.8041237"></polygon>
                    <rect id="Rectangle-23" fill="#FFFFFF" x="9.86556143" y="4.27835052" width="4.29576128" height="26.5257732"></rect>
                </g>
                <path d="M57.6464948,19.1165258 L57.6464948,28.2371134 L60.1664433,28.2371134 L60.1664433,19.1165258 L63.6293402,19.1165258 L63.6293402,16.856701 L54.1835979,16.856701 L54.1835979,19.1165258 L57.6464948,19.1165258 Z M73.8391959,28.2371134 L73.8391959,25.896 L67.6612577,25.896 L67.6612577,23.6036598 L73.2701753,23.6036598 L73.2701753,21.3763505 L67.6612577,21.3763505 L67.6612577,19.1815567 L73.6115876,19.1815567 L73.6115876,16.856701 L65.1738247,16.856701 L65.1738247,28.2371134 L73.8391959,28.2371134 Z M83.902732,26.2861856 L78.0662062,26.2861856 L77.2370619,28.2371134 L74.5057629,28.2371134 L79.6106907,16.856701 L82.3745052,16.856701 L87.479433,28.2371134 L84.7318763,28.2371134 L83.902732,26.2861856 Z M80.9925979,19.4254227 L79.0254124,24.0426186 L82.9435258,24.0426186 L80.9925979,19.4254227 Z M98.5834639,20.3358557 L98.5834639,28.2533711 L101.11967,28.2533711 L101.11967,16.8729588 L98.2420515,16.8729588 L94.9092165,21.2462887 L91.5926392,16.8729588 L88.6825052,16.8729588 L88.6825052,28.2533711 L91.2187113,28.2533711 L91.2187113,20.3033402 L94.6165773,24.7579588 L95.0717938,24.7579588 L98.5834639,20.3358557 Z M60.7842371,30.5474227 C62.9302577,30.5474227 64.734866,31.5228866 64.734866,33.6363918 C64.734866,34.5955979 64.3284227,35.4572577 63.2228969,35.9612474 C64.4422268,36.4002062 65.0925361,37.5545052 65.0925361,38.6762887 C65.0925361,38.8713814 65.0600206,39.0664742 65.0275052,39.261567 C64.6860928,41.0986907 63.1741237,41.9278351 60.8817835,41.9278351 L55.1753196,41.9278351 L55.1753196,30.5474227 L60.7842371,30.5474227 Z M57.6627526,34.9695258 L60.7517216,34.9695258 C61.7434433,34.9695258 62.2311753,34.5630825 62.2311753,33.8965155 C62.2311753,33.2299485 61.759701,32.7422165 60.7842371,32.7422165 L57.6627526,32.7422165 L57.6627526,34.9695258 Z M57.6627526,39.7167835 L60.7842371,39.7167835 C61.9385361,39.7167835 62.4587835,39.2127938 62.4587835,38.4161649 C62.4587835,37.6195361 61.8735052,37.0830309 60.7517216,37.0830309 L57.6627526,37.0830309 L57.6627526,39.7167835 Z M69.5308969,30.5474227 L66.9946907,30.5474227 L66.9946907,41.9278351 L75.2211031,41.9278351 L75.2211031,39.6029794 L69.5308969,39.6029794 L69.5308969,30.5474227 Z M88.2110309,36.2376289 C88.2110309,39.9443918 85.7073402,42.2042165 82.0656082,42.2042165 C78.4238763,42.2042165 75.9201856,39.9443918 75.9201856,36.2376289 C75.9201856,32.530866 78.4238763,30.2710412 82.0656082,30.2710412 C85.7073402,30.2710412 88.2110309,32.530866 88.2110309,36.2376289 Z M85.7235979,36.2376289 C85.7235979,34.1566392 84.2766598,32.5471237 82.0656082,32.5471237 C79.9033299,32.5471237 78.4076186,34.1728969 78.4076186,36.2376289 C78.4076186,38.3673918 79.9033299,39.9118763 82.0656082,39.9118763 C84.2766598,39.9118763 85.7235979,38.3673918 85.7235979,36.2376289 Z M99.9003402,40.5296701 L98.3233402,38.7738351 C97.6242577,39.4729175 96.4374433,39.8631031 95.5270103,39.8631031 C92.877,39.8631031 91.9503093,37.9772062 91.9503093,36.3189175 C91.9503093,34.6768866 92.9257732,32.6609278 95.5270103,32.6609278 C96.4374433,32.6609278 97.4129072,32.9373093 98.1119897,33.6038763 L99.7052474,32.0268763 C98.5346907,30.8563196 97.0877526,30.2710412 95.5270103,30.2710412 C91.3325155,30.2710412 89.4466186,33.3600103 89.4466186,36.3026598 C89.4466186,39.4078866 91.1861959,42.2042165 95.5270103,42.2042165 C97.2178144,42.2042165 98.7297835,41.7002268 99.9003402,40.5296701 Z M110.809278,30.6124536 L106.192082,36.0750515 L111.215722,41.7815155 L111.215722,41.9278351 L108.159268,41.9278351 L103.948515,37.0667732 L103.948515,41.9278351 L101.412309,41.9278351 L101.412309,30.5474227 L103.948515,30.5474227 L103.948515,35.2459072 L107.736567,30.5474227 L110.809278,30.5474227 L110.809278,30.6124536 Z M121.506866,40.5296701 C120.336309,41.7002268 118.82434,42.2042165 117.133536,42.2042165 C112.792722,42.2042165 111.053144,39.4078866 111.053144,36.3026598 C111.053144,33.3600103 112.939041,30.2710412 117.133536,30.2710412 C118.694278,30.2710412 120.141216,30.8563196 121.311773,32.0268763 L119.718515,33.6038763 C119.019433,32.9373093 118.043969,32.6609278 117.133536,32.6609278 C114.532299,32.6609278 113.556835,34.6768866 113.556835,36.3189175 C113.556835,37.9772062 114.483526,39.8631031 117.133536,39.8631031 C118.043969,39.8631031 119.230784,39.4729175 119.929866,38.7738351 L121.506866,40.5296701 Z M130.643711,41.9440928 L133.147402,41.9440928 L133.147402,30.5636804 L130.643711,30.5636804 L130.643711,35.1158454 L125.555041,35.1158454 L125.555041,30.5636804 L123.018835,30.5636804 L123.018835,41.9440928 L125.555041,41.9440928 L125.555041,37.440701 L130.643711,37.440701 L130.643711,41.9440928 Z M143.747443,39.9769072 L137.910918,39.9769072 L137.081773,41.9278351 L134.350474,41.9278351 L139.455402,30.5474227 L142.219216,30.5474227 L147.324144,41.9278351 L144.576588,41.9278351 L143.747443,39.9769072 Z M140.837309,33.1161443 L138.870124,37.7333402 L142.788237,37.7333402 L140.837309,33.1161443 Z M148.527216,41.9278351 L151.047165,41.9278351 L151.047165,30.5474227 L148.527216,30.5474227 L148.527216,41.9278351 Z M161.500887,37.9446907 L155.761907,30.5474227 L153.583371,30.5474227 L153.583371,41.9278351 L156.152093,41.9278351 L156.152093,38.3836495 L156.054546,34.6443711 L161.712237,41.9278351 L163.890773,41.9278351 L163.890773,30.5474227 L161.338309,30.5474227 L161.338309,34.3679897 L161.500887,37.9446907 Z" id="TEAM-BLOCKCHAIN" fill="#545454"></path>
            </g>
        </g>
    </g>
</svg>