<?xml version="1.0" encoding="UTF-8" standalone="no"?>
<svg width="36px" height="36px" viewBox="0 0 36 36" version="1.1" xmlns="http://www.w3.org/2000/svg" xmlns:xlink="http://www.w3.org/1999/xlink">
    <!-- Generator: Sketch 46.2 (44496) - http://www.bohemiancoding.com/sketch -->
    <title>likedin-icon</title>
    <desc>Created with Sketch.</desc>
    <defs></defs>
    <g id="Home-page" stroke="none" stroke-width="1" fill="none" fill-rule="evenodd">
        <g id="likedin-icon">
            <g id="Group-2-Copy-2">
                <circle id="Oval-2-Copy" fill="#FFFFFF" cx="18" cy="18" r="18"></circle>
                <g id="linkedin-logo" transform="translate(8.250000, 7.500000)" fill-rule="nonzero" fill="#000000">
                    <g id="Capa_1">
                        <path d="M20.2085133,11.9528847 L20.2085133,19.4791748 L15.8771746,19.4791748 L15.8771746,12.4569502 C15.8771746,10.6929102 15.2506932,9.48902184 13.6828921,9.48902184 C12.4860748,9.48902184 11.773848,10.3003544 11.4605133,11.085182 C11.3462488,11.3657549 11.316837,11.7562755 11.316837,12.1490206 L11.316837,19.4791748 L6.98404176,19.4791748 C6.98404176,19.4791748 7.04239559,7.58583131 6.98404176,6.35359223 L11.3164142,6.35359223 L11.3164142,8.21409102 C11.3076282,8.22800607 11.2962111,8.24300971 11.287942,8.25649879 L11.3164142,8.25649879 L11.3164142,8.21409102 C11.8920122,7.32101942 12.9199698,6.04523665 15.2208585,6.04523665 C18.0715041,6.04518932 20.2085133,7.92121238 20.2085133,11.9528847 Z M2.45175348,0.0264101942 C0.969509861,0.0264101942 0,1.00581189 0,2.2937585 C0,3.55363835 0.941460557,4.56276335 2.39424536,4.56276335 L2.42318735,4.56276335 C3.93413805,4.56276335 4.87381323,3.55382767 4.87381323,2.2937585 C4.84534107,1.00581189 3.93413805,0.0264101942 2.45175348,0.0264101942 Z M0.257330046,19.4791748 L4.58848086,19.4791748 L4.58848086,6.35359223 L0.257330046,6.35359223 L0.257330046,19.4791748 Z" id="LinkedIn"></path>
                    </g>
                </g>
            </g>
        </g>
    </g>
</svg>