<?xml version="1.0" encoding="UTF-8" standalone="no"?>
<svg width="180px" height="160px" viewBox="0 0 180 160" version="1.1" xmlns="http://www.w3.org/2000/svg" xmlns:xlink="http://www.w3.org/1999/xlink">
    <!-- Generator: Sketch 46.2 (44496) - http://www.bohemiancoding.com/sketch -->
    <title>linkedin</title>
    <desc>Created with Sketch.</desc>
    <defs></defs>
    <g id="Home-page" stroke="none" stroke-width="1" fill="none" fill-rule="evenodd">
        <g id="linkedin">
            <g id="Group-41-Copy">
                <rect id="Rectangle-4-Copy" fill="#FFFFFF" x="0" y="0" width="180" height="160"></rect>
                <g id="002-linkedin-copy" transform="translate(20.000000, 10.000000)" fill-rule="nonzero">
                    <circle id="Oval" fill="#4376B1" cx="69.8638207" cy="69.8635478" r="69.8635478"></circle>
                    <path d="M139.458558,63.7597661 L107.723314,31.9838596 C88.3375439,34.5046784 68.0784795,34.128616 48.6927096,34.5794542 C40.6949708,34.5794542 32.6969591,38.3430799 34.1084211,47.2817934 C36.9310721,65.1592203 38.3425341,82.5664327 35.0493957,100.914347 C34.5308772,103.246316 33.440078,105.578012 32.0155166,107.75306 L63.7177388,139.455556 C65.742963,139.631852 67.7919298,139.727368 69.8632749,139.727368 C108.447602,139.727368 139.726823,108.448148 139.726823,69.8638207 C139.727368,67.8061209 139.633216,65.771345 139.458558,63.7597661 Z" id="Shape" fill="#336699"></path>
                    <path d="M102.618363,29.874308 L37.1092788,29.874308 C33.1131384,29.874308 29.8745809,33.1128655 29.8745809,37.1090058 L29.8745809,102.617544 C29.8745809,106.612593 33.1131384,109.852242 37.1092788,109.852242 L102.617817,109.852242 C106.612865,109.852242 109.852515,106.612593 109.852515,102.617544 L109.852515,37.1090058 C109.85306,33.1128655 106.613411,29.874308 102.618363,29.874308 L102.618363,29.874308 Z M54.6231969,98.9325146 C54.6231969,100.095906 53.6808577,101.038246 52.5174659,101.038246 L43.5561014,101.038246 C42.3927096,101.038246 41.4503704,100.095361 41.4503704,98.9325146 L41.4503704,61.3642105 C41.4503704,60.2008187 42.3932554,59.2584795 43.5561014,59.2584795 L52.5180117,59.2584795 C53.6814035,59.2584795 54.6237427,60.2013645 54.6237427,61.3642105 L54.6237427,98.9325146 L54.6231969,98.9325146 Z M48.0366472,55.7167251 C43.3345029,55.7167251 39.5231189,51.9045224 39.5231189,47.2018324 C39.5231189,42.499961 43.33423,38.6883041 48.0366472,38.6883041 C52.7393372,38.6883041 56.5507212,42.5005068 56.5507212,47.2018324 C56.5507212,51.9050682 52.7390643,55.7167251 48.0366472,55.7167251 L48.0366472,55.7167251 Z M101.458519,99.1022612 C101.458519,100.171501 100.592047,101.038791 99.5236257,101.038791 L89.9059259,101.038791 C88.8375049,101.038791 87.9704873,100.171774 87.9704873,99.1022612 L87.9704873,81.4797271 C87.9704873,78.8516569 88.7417154,69.9604288 81.1009357,69.9604288 C75.1737232,69.9604288 73.9715789,76.0461988 73.7303314,78.7763353 L73.7303314,99.1017154 C73.7303314,100.170955 72.8638596,101.038246 71.794347,101.038246 L62.4932164,101.038246 C61.4239766,101.038246 60.5566862,100.171228 60.5566862,99.1017154 L60.5566862,61.1944639 C60.5566862,60.1252242 61.4237037,59.2579337 62.4932164,59.2579337 L71.794347,59.2579337 C72.8635867,59.2579337 73.7303314,60.1249513 73.7303314,61.1944639 L73.7303314,64.4717739 C75.9283041,61.1737232 79.1946979,58.6272515 86.1480312,58.6272515 C101.546667,58.6272515 101.459337,73.0139571 101.459337,80.9197271 L101.459337,99.1025341 L101.458519,99.1025341 L101.458519,99.1022612 Z" id="Shape" fill="#FFFFFF"></path>
                    <path d="M102.618363,29.874308 L69.7071735,29.874308 L69.7071735,59.2579337 L71.7940741,59.2579337 C72.8633138,59.2579337 73.7300585,60.1249513 73.7300585,61.1944639 L73.7300585,64.4717739 C75.9280312,61.1737232 79.194425,58.6272515 86.1480312,58.6272515 C101.546667,58.6272515 101.459337,73.0139571 101.459337,80.9197271 L101.459337,99.1019883 C101.459337,100.171228 100.592865,101.038519 99.5244444,101.038519 L89.9067446,101.038519 C88.8383236,101.038519 87.971306,100.171501 87.971306,99.1019883 L87.971306,81.4794542 C87.971306,78.851384 88.7425341,69.9601559 81.1017544,69.9601559 C75.1745419,69.9601559 73.9723977,76.0459259 73.7311501,78.7760624 L73.7311501,99.1014425 C73.7311501,100.170682 72.8646784,101.037973 71.7951657,101.037973 L69.7082651,101.037973 L69.7082651,109.85306 L102.619454,109.85306 C106.614503,109.85306 109.854152,106.613411 109.854152,102.618363 L109.854152,37.1090058 C109.85306,33.1128655 106.613411,29.874308 102.618363,29.874308 Z" id="Shape" fill="#D1D1D1"></path>
                </g>
            </g>
        </g>
    </g>
</svg>