<?xml version="1.0" encoding="UTF-8" standalone="no"?>
<svg width="180px" height="160px" viewBox="0 0 180 160" version="1.1" xmlns="http://www.w3.org/2000/svg" xmlns:xlink="http://www.w3.org/1999/xlink">
    <!-- Generator: Sketch 46.2 (44496) - http://www.bohemiancoding.com/sketch -->
    <title>mail</title>
    <desc>Created with Sketch.</desc>
    <defs></defs>
    <g id="Home-page" stroke="none" stroke-width="1" fill="none" fill-rule="evenodd">
        <g id="mail">
            <g id="Group-40-Copy">
                <rect id="Rectangle-4" fill="#FFFFFF" x="0" y="0" width="180" height="160"></rect>
                <g id="003-email-copy" transform="translate(20.000000, 10.000000)" fill-rule="nonzero">
                    <path d="M69.9997266,0 C108.659961,0 140,31.3394922 140,70.0002734 C140,108.659961 108.659961,140 69.9997266,140 C31.3394922,140 0,108.659961 0,70.0002734 C0,31.3394922 31.3400391,0 69.9997266,0 Z" id="Shape" fill="#5DDDD3"></path>
                    <g id="Group" transform="translate(17.000000, 35.000000)" fill="#F5A209">
                        <polygon id="Shape" points="106.824136 31.7289017 0.176412821 31.7289017 53.5002744 0.229812139"></polygon>
                        <polygon id="Shape" points="0.175864103 31.7289017 106.823587 31.7289017 106.823587 94.7281792 0.175864103 94.7281792"></polygon>
                    </g>
                    <polygon id="Shape" fill="#FFFFFF" points="28 21 94.4807685 21 112 38.5504291 112 129 28 129 28 21.0005449"></polygon>
                    <path d="M41.000547,44 L99.9969914,44 L99.9969914,45.3545264 L41.000547,45.3545264 L41.000547,44 Z M41.000547,58.5917913 L41.000547,58.5917913 L99.9969914,58.5917913 L99.9969914,59.9474316 L41.000547,59.9474316 L41.000547,58.5917913 Z M41.000547,61.1050726 L41.000547,61.1050726 L99.9969914,61.1050726 L99.9969914,62.4601559 L41.000547,62.4601559 L41.000547,61.1050726 Z M41.000547,63.6180755 L41.000547,63.6180755 L99.9969914,63.6180755 L99.9969914,64.9726019 L41.000547,64.9726019 L41.000547,63.6180755 Z M41.000547,66.1313568 L41.000547,66.1313568 L100,66.1313568 L100,67.4858832 L41.000547,67.4858832 L41.000547,66.1313568 Z M41.000547,46.5130029 L41.000547,46.5130029 L99.9969914,46.5130029 L99.9969914,47.8680862 L41.000547,47.8680862 L41.000547,46.5130029 Z M41.000547,49.0262842 L41.000547,49.0262842 L99.9969914,49.0262842 L99.9969914,50.3813676 L41.000547,50.3813676 L41.000547,49.0262842 Z M41.000547,51.5392871 L41.000547,51.5392871 L100,51.5392871 L100,52.8938135 L41.000547,52.8938135 L41.000547,51.5392871 Z M41,54.0525684 L41,54.0525684 L86.1907387,54.0525684 L86.1907387,55.4070948 L41,55.4070948 L41,54.0525684 Z M41,68.6449167 L41,68.6449167 L86.1907387,68.6449167 L86.1907387,70 L41,70 L41,68.6449167 Z" id="Shape" fill="#ECF0F1"></path>
                    <polygon id="Shape" fill="#FFCA4F" points="95 21 95 39 113 39"></polygon>
                    <polygon id="Shape" fill="#B3B3B3" points="60 117 80 117 80 119 60 119"></polygon>
                    <g id="Group" transform="translate(17.000000, 67.000000)" fill="#FBB429">
                        <polygon id="Shape" points="0.175864103 0.152727273 53.4997256 31.4408182 0.175864103 62.73"></polygon>
                        <polygon id="Shape" points="106.824136 0.152727273 53.5002744 31.4408182 106.824136 62.73"></polygon>
                    </g>
                    <polygon id="Shape" fill="#F5A209" points="70 98 17 129 123 129"></polygon>
                    <polygon id="Shape" fill="#F7FAFA" points="113 57 113 39 95 39"></polygon>
                    <path d="M28.5,5 C37.6125607,5 45,12.3871693 45,21.5 C45,30.6128307 37.6122908,38 28.5,38 C19.3868994,38 12,30.6122908 12,21.5 C12,12.3868994 19.3874393,5 28.5,5 Z" id="Shape" fill="#FFCA4F"></path>
                    <g id="Group" transform="translate(17.000000, 10.000000)" fill="#FFFFFF">
                        <path d="M12.6961991,15.9246588 C12.1758519,16.5218471 11.5929537,17.0016 10.9447731,17.3636471 C10.3004167,17.7251529 9.65223611,17.9042824 9.00378241,17.9042824 C8.2895,17.9042824 7.59625,17.6972824 6.91938889,17.2868 C6.246625,16.8722588 5.70114815,16.238 5.27831481,15.3799647 C4.85548148,14.5227412 4.64652315,13.5794706 4.64652315,12.5550235 C4.64652315,11.2913765 4.97484722,10.0271882 5.627125,8.75894118 C6.27940278,7.49529412 7.09119907,6.54444706 8.0603287,5.90585882 C9.02863889,5.2716 9.97236574,4.95474118 10.8830417,4.95474118 C11.5803889,4.95474118 12.2452315,5.13305882 12.8805741,5.49537647 C13.512912,5.85742353 14.058662,6.40996471 14.514,7.14569412 L14.9368333,5.29622353 L17.0783148,5.29622353 L15.3468287,13.2948118 C15.104,14.4085529 14.9854537,15.0219765 14.9854537,15.1394118 C14.9854537,15.3553412 15.0673981,15.5420471 15.2318333,15.6965529 C15.3962685,15.8510588 15.5967593,15.9279059 15.8262037,15.9279059 C16.252588,15.9279059 16.8109028,15.6881647 17.5003287,15.2043529 C18.4151019,14.5700941 19.1414028,13.7207176 19.6751343,12.6521647 C20.2080463,11.5871294 20.4743657,10.4901647 20.4743657,9.35585882 C20.4743657,8.03078824 20.1299259,6.79528235 19.4451435,5.64907059 C18.7598148,4.49934118 17.7341435,3.58069412 16.3719537,2.88907059 C15.0144074,2.20231765 13.5082685,1.85704706 11.8628241,1.85704706 C9.98383796,1.85704706 8.26491667,2.29188235 6.71343519,3.15776471 C5.15840278,4.02770588 3.95218056,5.2716 3.09941204,6.89323529 C2.24118056,8.51541176 1.8147963,10.2539412 1.8147963,12.1118 C1.8147963,14.0548941 2.24118056,15.7255059 3.09531481,17.1274235 C3.9524537,18.5336706 5.18762963,19.5700235 6.80384722,20.2405412 C8.42033796,20.9105176 10.208912,21.2441529 12.1747593,21.2441529 C14.2796389,21.2441529 16.0395324,20.8950941 17.4588102,20.1918353 C18.8783611,19.4931765 19.9406343,18.6389294 20.6469954,17.6353176 L22.812787,17.6353176 C22.4027917,18.4687294 21.7010741,19.3218941 20.7084537,20.1875059 C19.715287,21.0531176 18.5336481,21.7404118 17.163537,22.2439765 C15.7928796,22.7480824 14.1395139,23 12.211088,23 C10.430162,23 8.78908796,22.7721647 7.28759259,22.3210941 C5.782,21.8700235 4.50230093,21.1911176 3.44330556,20.2854588 C2.38458333,19.3749294 1.58835648,18.3296471 1.05107407,17.1515059 C0.378310185,15.6521765 0.0417916667,14.0343294 0.0417916667,12.2987765 C0.0417916667,10.3681294 0.444138889,8.52352941 1.24446296,6.77174118 C2.22424537,4.62570588 3.61566204,2.97971765 5.41680093,1.83729412 C7.21821296,0.695411765 9.40066667,0.126094118 11.9693519,0.126094118 C13.9592361,0.126094118 15.7478102,0.528188235 17.3317963,1.33291765 C18.9157824,2.13764706 20.1670741,3.33635294 21.07775,4.92984706 C21.857588,6.29956471 22.2473704,7.79185882 22.2473704,9.40077647 C22.2473704,11.7013176 21.4306574,13.7418235 19.7980509,15.5255412 C18.3369815,17.1274235 16.7453472,17.9280941 15.0144074,17.9280941 C14.4596435,17.9280941 14.0171435,17.8423176 13.6768009,17.6756353 C13.335912,17.5092235 13.0865278,17.2692118 12.9259167,16.9561412 C12.819662,16.7575294 12.7461852,16.4119882 12.6961991,15.9246588 Z M6.86230093,12.7052 L6.86230093,12.7052 C6.86230093,13.7945882 7.1247963,14.6393647 7.64650926,15.2414235 C8.16685648,15.847 8.76259259,16.1476235 9.43890741,16.1476235 C9.88632407,16.1476235 10.3580509,16.0128706 10.8584583,15.7490471 C11.3547685,15.4806235 11.8311389,15.0869176 12.2826528,14.5625176 C12.7374444,14.0381176 13.1070139,13.3716588 13.3943657,12.5669294 C13.6852685,11.7622 13.8292176,10.9536824 13.8292176,10.1411059 C13.8292176,9.06362353 13.5582546,8.22236471 13.016875,7.62869412 C12.4754954,7.03150588 11.8142037,6.7344 11.0390093,6.7344 C10.5265833,6.7344 10.0417454,6.86455294 9.58640741,7.12052941 C9.13462037,7.38056471 8.69621759,7.79537647 8.26983333,8.36794118 C7.847,8.93698824 7.50256019,9.63158824 7.24771296,10.4530941 C6.98931481,11.2697294 6.86230093,12.0216941 6.86230093,12.7046588 L6.86230093,12.7052 Z" id="Shape"></path>
                        <polygon id="Shape" points="112.35075 6.52631765 117.443324 11.0754471 117.909588 11.4918824 117.443324 11.9077765 112.35075 16.4569059 111.594949 15.6251176 115.593292 12.0525412 96.8963009 12.0525412 96.8963009 10.9309529 115.593292 10.9309529 111.594949 7.35837647 112.35075 6.52658824"></polygon>
                        <polygon id="Shape" points="93.8659954 9.68651765 88.7739676 14.2361882 88.3077037 14.6520824 88.7739676 15.0685176 93.8659954 19.6181882 94.6217963 18.7858588 90.6234537 15.2132824 109.320444 15.2132824 109.320444 14.0922353 90.6234537 14.0922353 94.6217963 10.5191176 93.8659954 9.68678824"></polygon>
                    </g>
                </g>
            </g>
        </g>
    </g>
</svg>