<?xml version="1.0" encoding="UTF-8" standalone="no"?>
<svg width="180px" height="160px" viewBox="0 0 180 160" version="1.1" xmlns="http://www.w3.org/2000/svg" xmlns:xlink="http://www.w3.org/1999/xlink">
    <!-- Generator: Sketch 46.2 (44496) - http://www.bohemiancoding.com/sketch -->
    <title>twitter</title>
    <desc>Created with Sketch.</desc>
    <defs></defs>
    <g id="Home-page" stroke="none" stroke-width="1" fill="none" fill-rule="evenodd">
        <g id="twitter">
            <g id="Group-42-Copy">
                <rect id="Rectangle-4-Copy-2" fill="#FFFFFF" x="0" y="0" width="180" height="160"></rect>
                <g id="001-twitter-copy" transform="translate(20.000000, 10.000000)" fill-rule="nonzero">
                    <circle id="Oval" fill="#65A2D9" cx="70" cy="70" r="70"></circle>
                    <path d="M107.464766,38.0969531 C100.163164,44.4322266 92.9033984,49.9846484 86.9695312,57.7439844 C72.3731641,75.3457031 54.5362891,100.318203 30.2624219,96.595625 L73.6323437,139.907031 C110.397656,138.027695 139.66668,107.780039 139.991797,70.6245312 L107.464766,38.0969531 Z" id="Shape" fill="#3A7CA5"></path>
                    <path d="M108.793125,44.4256641 C107.012227,45.215625 105.164336,45.8385156 103.2675,46.2891406 C105.357656,44.3037109 106.928828,41.8195312 107.815039,39.0474219 C108.068242,38.2563672 107.208281,37.5714062 106.493789,37.9952344 C103.855117,39.5606641 101.013008,40.7339844 98.0462109,41.4848437 C97.8744922,41.5285937 97.6973047,41.5504687 97.51875,41.5504687 C96.9776172,41.5504687 96.4534375,41.3500391 96.0391797,40.9858203 C92.8831641,38.2038672 88.8231641,36.6717969 84.608125,36.6717969 C82.78375,36.6717969 80.9426953,36.9561719 79.135,37.5169922 C73.5330859,39.2541406 69.2105859,43.8755078 67.8537891,49.5764062 C67.3451953,51.7141406 67.2079297,53.8551562 67.4447266,55.9376562 C67.47125,56.1771875 67.3588672,56.3439844 67.2891406,56.4221875 C67.1660937,56.5594531 66.9927344,56.6384766 66.8119922,56.6384766 C66.7923047,56.6384766 66.7709766,56.6376562 66.7507422,56.6357422 C54.4881641,55.4960547 43.4300781,49.5887109 35.6146875,40.000625 C35.2168359,39.5114453 34.4517578,39.5716016 34.1340234,40.1160156 C32.6038672,42.7426562 31.7950391,45.7458203 31.7950391,48.8020312 C31.7950391,53.4851953 33.6773828,57.8992969 36.9457812,61.1173828 C35.5712109,60.7911719 34.2406641,60.2779297 33.0044531,59.5910547 C32.4061719,59.2591016 31.6708984,59.6867578 31.6624219,60.370625 C31.5776562,67.3282422 35.6513281,73.5194141 41.7536328,76.3071094 C41.6305859,76.3098437 41.5075391,76.3109375 41.3844922,76.3109375 C40.4173437,76.3109375 39.4373437,76.2185156 38.47375,76.0333984 C37.8002734,75.9057031 37.2345312,76.5439062 37.4434375,77.1963281 C39.4247656,83.3809375 44.7488672,87.9391406 51.1210547,88.9732812 C45.8330469,92.5233203 39.6741406,94.3955469 33.2650391,94.3955469 L31.2673047,94.3947266 C30.6507031,94.3947266 30.1298047,94.7964062 29.9739453,95.3927734 C29.8194531,95.9792969 30.1035547,96.5994531 30.6291016,96.9048828 C37.8511328,101.108164 46.0895312,103.329297 54.4558984,103.329297 C61.7796484,103.329297 68.6303516,101.876523 74.8176953,99.0095312 C80.4901562,96.3820703 85.5025391,92.6261328 89.7162109,87.8458984 C93.6419531,83.3926953 96.7110156,78.2523437 98.8394531,72.5664844 C100.867812,67.1480469 101.940234,61.3645703 101.940234,55.8446875 L101.940234,55.5810937 C101.940234,54.6948828 102.34082,53.8608984 103.040547,53.2924219 C105.694531,51.1371875 108.006172,48.6007812 109.909844,45.7532031 C110.412969,45.0017969 109.62,44.0589844 108.793125,44.4256641 L108.793125,44.4256641 Z" id="Shape" fill="#FFFFFF"></path>
                    <path d="M65.662853,90.5049286 C63.4691165,91.3219236 59.0661165,92.7397128 54.7813114,93.5449271 C50.3291121,94.3815987 45.9981754,94.7676465 44.4148583,94.8390662 C42.4144495,94.9292998 33.7736989,94.3382112 31.0079982,94.420354 C30.7842939,94.4269982 30.6337396,94.5409823 30.5008044,94.6052801 C30.1055602,94.7964511 29.9425845,95.5296794 29.9425845,95.5296794 C29.9033089,96.0519789 30.0365005,96.4222078 30.4020841,96.7345419 C30.8521418,97.1190461 31.7629392,97.5081661 32.4301939,97.8848417 C37.2542359,100.608087 41.9364713,102.015337 48.6690092,102.952283 C52.5294376,103.489527 56.5085549,103.368583 60.1346927,103.038994 C67.9373649,102.329788 74.214696,99.2963041 74.8185156,99.0087109 C80.4736225,96.3152413 85.5033594,92.6253125 89.7170313,87.8450781 C93.6427734,83.3916016 96.7118359,78.2515234 98.8402734,72.5656641 C100.868633,67.1472266 101.941055,61.36375 101.941055,55.8438672 L101.941055,55.5802734 C101.941055,54.6940625 102.341641,53.8600781 103.041367,53.2916016 C105.695352,51.1363672 108.006992,48.5999609 109.910664,45.7523828 C110.052826,45.5399523 106.078441,49.8892609 101.770038,53.8977611 C94.9509335,60.242196 91.394434,72.127133 84.0634233,79.5959891 C76.9755809,86.8171047 67.8565895,89.6879336 65.662853,90.5049286 Z" id="Shape" fill="#E1E1E1"></path>
                </g>
            </g>
        </g>
    </g>
</svg>